<?xml version="1.0" standalone="no"?><!DOCTYPE svg PUBLIC "-//W3C//DTD SVG 1.1//EN" "http://www.w3.org/Graphics/SVG/1.1/DTD/svg11.dtd"><svg t="1573746129194" class="icon" viewBox="0 0 1024 1024" version="1.1" xmlns="http://www.w3.org/2000/svg" p-id="3993" xmlns:xlink="http://www.w3.org/1999/xlink" width="128" height="128"><defs><style type="text/css"></style></defs><path d="M928.032 95.968h-832A96 96 0 0 0 0 191.936v640a96 96 0 0 0 96.032 96.032h832a96.064 96.064 0 0 0 96.032-96.032v-640a96.032 96.032 0 0 0-96.032-95.968z m15.968 638.048l-200.864-267.808s-11.648-21.664-52.672-21.664c-46.528 0-60.48 20.992-60.48 20.992l-175.936 271.552s-9.568 18.208-33.056 18.208c-24.576 0-36.32-18.208-36.32-18.208L292.16 631.328s-23.712-31.392-54.496-31.392c-30.688 0-56.16 34.752-56.16 34.752l-101.536 126.496V209.12c0-17.632 14.336-32.032 32.032-32.032h800.032c17.696 0 32.032 14.368 32.032 32.032v524.864zM463.904 384a113.28 113.28 0 1 1-226.624 0.064A113.28 113.28 0 0 1 463.904 384z" p-id="3994" fill="#ffffff"></path></svg>